<svg width="32" height="32" xmlns="http://www.w3.org/2000/svg" xmlns:xlink="http://www.w3.org/1999/xlink"><defs><radialGradient cx="68.476%" cy="6.715%" fx="68.476%" fy="6.715%" r="433.447%" gradientTransform="matrix(-.16502 .79139 -.93823 -.12596 .86 -.466)" id="a"><stop stop-color="#007FFF" offset="0%"/><stop stop-color="#007FFF" offset="30.865%"/><stop stop-color="#F3F4F4" offset="100%"/></radialGradient><radialGradient cx="74.676%" cy="100%" fx="74.676%" fy="100%" r="125.792%" gradientTransform="matrix(.20132 .78596 -2.98454 .49218 3.581 -.08)" id="c"><stop stop-color="#BBDAFA" offset="0%"/><stop stop-color="#A7CCF8" stop-opacity="0" offset="100%"/></radialGradient><linearGradient x1="50%" y1="75.217%" x2="-109.551%" y2="-284.205%" id="d"><stop stop-color="#F3F4F4" stop-opacity="0" offset="0%"/><stop stop-color="#F3F4F4" offset="100%"/><stop stop-color="#F3F4F4" offset="100%"/></linearGradient><linearGradient x1="127.272%" y1="58.926%" x2="21.766%" y2="28.627%" id="e"><stop stop-color="#FFF" offset="0%"/><stop stop-color="#FFF" stop-opacity=".8" offset="100%"/><stop stop-color="#FFF" stop-opacity=".8" offset="100%"/></linearGradient><path d="M15.245 22H2.408A2.408 2.408 0 0 1 0 19.592V2.408A2.408 2.408 0 0 1 2.408 0h9.42c.6 0 1.18.224 1.623.629l3.416 3.115c.5.456.785 1.102.785 1.779v14.07A2.408 2.408 0 0 1 15.245 22Z" id="b"/></defs><g fill="none" fill-rule="evenodd"><path d="M-7-744h750V6H-7z"/><rect width="32" height="32" rx="6.875"/><g transform="translate(7 5)"><use fill="url(#a)" xlink:href="#b"/><use fill-opacity=".6" fill="url(#c)" xlink:href="#b"/><use fill="url(#d)" xlink:href="#b"/></g><path d="M17.848 9.092c.409 0 .74.33.74.738a.74.74 0 0 1-.71.737H11.11a.74.74 0 0 1-.742-.737.74.74 0 0 1 .712-.737l.03-.001h6.738Zm.001 3.488c.41 0 .74.33.74.737a.74.74 0 0 1-.71.737H11.11a.74.74 0 0 1-.742-.737.74.74 0 0 1 .712-.737h6.769Z" fill="#E6F3FF" fill-rule="nonzero"/><path d="M10.758 22a4.7 4.7 0 0 1-4.691-4.861c.083-2.402 2.008-4.38 4.407-4.52a4.668 4.668 0 0 1 4.491 2.614l.133.27c.016.032.049.05.084.047l.3-.025a3.29 3.29 0 0 1 .274-.014A3.248 3.248 0 0 1 19 18.854C18.946 20.618 17.452 22 15.687 22h-4.929Z" fill="url(#e)" transform="translate(7 5)"/></g></svg>