<svg width="32" height="32" xmlns="http://www.w3.org/2000/svg"><defs><linearGradient x1="0%" y1="108.007%" x2="116.014%" y2="108.007%" id="a"><stop stop-color="#A0DAFE" stop-opacity=".6" offset="0%"/><stop stop-color="#9DD8FD" stop-opacity="0" offset="100%"/></linearGradient><linearGradient x1="54.452%" y1="39.095%" x2="-8.859%" y2="76.689%" id="b"><stop stop-color="#57BBFD" offset="0%"/><stop stop-color="#CCECFE" offset="100%"/></linearGradient></defs><g fill="none" fill-rule="evenodd"><path d="M-50-744h750V6H-50z"/><rect width="32" height="32" rx="6.875"/><path d="M13.627 7.045C10.43 6.98 3.067 7.11.55 7.889L0 1.626C0 .71 6.116 0 13.7 0c2.167 0 5.269.111 7.077.273-.194 3.537-.012 3.747-.273 7.108-1.914-.136-3.68-.271-6.877-.336Z" fill="url(#a)" transform="translate(4 5)"/><path d="M20.504 7.381a3.554 3.554 0 1 0 0-7.108 3.554 3.554 0 0 0 0 7.108Zm-6.015 14.49-5.74-1.094V9.022C7.32 8.962 5.533 8.8 3.39 8.538 1.247 8.275.117 7.896 0 7.402V1.626c.28.627 2.164 1.092 5.651 1.395 3.488.303 6.434.444 8.838.424V21.87Z" fill="url(#b)" transform="translate(4 5)"/></g></svg>