<svg width="32" height="32" xmlns="http://www.w3.org/2000/svg"><defs><linearGradient x1="126.032%" y1="4.08%" x2="-27.776%" y2="140.406%" id="a"><stop stop-color="#8F35FF" offset="0%"/><stop stop-color="#FFF" offset="100%"/></linearGradient></defs><g fill="none" fill-rule="evenodd"><path d="M-103-744h750V6h-750z"/><path d="M6.875 0h18.25A6.875 6.875 0 0 1 32 6.875v18.25A6.875 6.875 0 0 1 25.125 32H6.875A6.875 6.875 0 0 1 0 25.125V6.875A6.875 6.875 0 0 1 6.875 0Z"/><path d="M20.571 19.55h-6.366c.1-.112.206-.224.317-.337 1.019-1.025 2.46-1.963 4.335-1.963.631 0 1.143-.515 1.143-1.15V1.15C20 .515 19.488 0 18.857 0c-3.627 0-5.783 1.777-6.9 3.14a3.403 3.403 0 0 0-2.243-.84H3.43C1.535 2.3 0 3.845 0 5.75V18.4c0 1.905 1.535 3.45 3.429 3.45H9.24c.242.69.89 1.15 1.617 1.15h2.286c.727 0 1.375-.46 1.617-1.15h5.811c1.894 0 3.429-1.545 3.429-3.45V3.45c0-.41-.218-.79-.571-.996a1.137 1.137 0 0 0-1.143 0 1.151 1.151 0 0 0-.572.996V18.4c0 .635-.511 1.15-1.143 1.15ZM9.714 4.6c.631 0 1.143.515 1.143 1.15v13.8H3.43a1.146 1.146 0 0 1-1.143-1.15V5.75c0-.635.511-1.15 1.143-1.15h6.285Z" fill="url(#a)" transform="translate(4 4)"/><path d="M16.438 23.55c.1-.112 1.973-.224 2.084-.337 1.019-1.025 2.46-1.963 4.335-1.963.631 0 1.143-.515 1.143-1.15V5.15C24 4.515 23.488 4 22.857 4c-3.627 0-5.783 1.777-6.9 3.14-.415-.362-.254 5.108.481 16.41Z" opacity=".9"/></g></svg>